<?xml version="1.0" encoding="UTF-8" standalone="no"?>
<!DOCTYPE svg PUBLIC "-//W3C//DTD SVG 1.1//EN" "http://www.w3.org/Graphics/SVG/1.1/DTD/svg11.dtd">
<svg width="100%" height="100%" viewBox="0 0 350 525" version="1.1" xmlns="http://www.w3.org/2000/svg" xmlns:xlink="http://www.w3.org/1999/xlink" xml:space="preserve" xmlns:serif="http://www.serif.com/" fill-rule="evenodd" clip-rule="evenodd" stroke-linejoin="round" stroke-miterlimit="2">
    <g>
        <path d="M166.17,524.58C140.85,523.4 116.87,516.84 94.66,504.98C69.08,491.35 46.96,471.12 30.93,446.76C17.72,426.69 8.8,406.04 4.05,384.5C0.31,367.38 0.01,364.6 0.01,343.06C0.01,330.1 0.18,324.47 0.64,320.55C4.55,288.66 15.07,258.96 34.29,225.27C40.68,214.08 47.71,202.51 54.06,192.71C61.46,181.35 92.3,135.25 98.69,125.99C116.4,100.46 139.07,63.27 150.01,41.86C156.45,29.28 164.78,10.9 168.01,2.02L168.77,0L182.07,0L182.32,1.3C182.45,2.02 184,6.18 185.73,10.55C197.59,40.33 216.23,73.27 248.7,121.78C256.31,133.14 267.5,149.8 273.56,158.8C300.74,199.27 311.63,216.77 322.36,237.13C337.42,265.78 346.21,292.41 349.41,319.08C350.25,326.4 350.25,357.95 349.37,366.11C347.27,385.21 340.54,407.34 331.03,426.18C320.98,446.12 308.73,462.57 292.54,477.71C278.24,491.17 264.52,500.68 249.04,507.96C247.06,508.89 245.17,509.85 244.79,510.15C244.45,510.44 243.95,510.7 243.7,510.7C243.45,510.7 241.89,511.25 240.29,511.96C235.79,513.85 224.26,517.68 218.12,519.32C210.46,521.34 207.56,521.93 197.72,523.36C187.92,524.79 178.54,525.17 166.17,524.58ZM181.52,509.44C212.69,507.72 241.47,497.28 267.04,478.44C279.66,469.19 294.09,454.29 304.1,440.24C328.67,405.79 339.69,362.46 334.39,320.77C330.18,287.2 316.17,254.18 286.35,207.19C278.4,194.74 252.82,156.37 236.42,132.31C222.37,111.7 203.19,80.82 191.95,60.59C188.5,54.36 177.98,33.58 176.26,29.59C175.76,28.37 175.21,27.36 175.04,27.36C174.87,27.36 173.19,30.73 171.25,34.85C161.45,55.76 149.42,77.09 132.55,103.5C125.1,115.15 120.48,122.09 87.83,170.81C58.93,213.93 48.45,231.05 38.27,251.79C24.6,279.64 18.41,299.66 15.34,325.83C11.05,362.6 21.23,403.11 43.19,436.68C53.88,452.96 69.02,468.78 85,480.3C109.19,497.76 137.96,507.85 168.04,509.45C171.28,509.62 174.01,509.79 174.14,509.79C174.27,509.83 177.59,509.66 181.5,509.45L181.52,509.44Z" fill="rgb(245,246,245)" fill-rule="nonzero"/>
    </g>
    <g>
        <path d="M166.8,510.7C140.34,509.31 114.47,501.23 92.76,487.52C81.91,480.75 74,474.44 64.41,465.06C50.74,451.64 40.35,437.42 31.56,419.84C27.94,412.65 23.02,400.78 22.09,397.04C21.8,395.95 21.88,395.86 23.06,395.86C24.24,395.86 24.45,396.15 27.06,401.45C37.58,422.69 52.38,439.94 70.01,451.55C86.63,462.49 103.83,468.84 124.87,471.74C154.61,475.9 187.21,469.38 216.28,453.48C235.63,442.88 252.84,428.07 266.59,410.15C284.01,387.48 295.78,358.87 299.57,330.22C301.93,312.22 300.54,292.49 295.28,269.05C291.54,252.56 284.64,232.16 275.68,211.21C270.8,199.89 260.7,179.49 253.89,167.21C239.8,141.93 233.91,131.24 232.9,129.27C231.72,126.91 231.34,123.46 232.35,123.76C233.07,124.01 245.48,142.23 269.96,178.99C297.01,219.58 310.51,242.76 320.27,265.27C338.78,308.05 342.02,349.32 330.03,390.67C322.16,417.64 307.82,441.99 287.37,462.9C262,488.81 230.33,504.8 194.78,509.64C190.11,510.27 177.15,511.15 174.17,511.03C173.37,511.03 170.05,510.86 166.81,510.69L166.8,510.7Z" fill="rgb(0,159,255)" fill-rule="nonzero"/>
    </g>
    <g>
        <path d="M133.94,474.06C127.71,473.68 120.56,472.71 113.83,471.33C74.33,463.3 44.12,439.78 25.78,402.72C24.27,399.65 22.79,397.13 22.5,397.13C21.66,397.13 17.96,383.92 16.02,373.99C10.17,343.91 13.2,310.76 24.64,279C31.12,261.04 42.69,237.94 56.23,216.03C63.97,203.45 69.57,194.91 86.56,169.55C119.2,120.88 123.83,113.89 131.28,102.24C143.73,82.72 152.4,68 160.39,52.77C164.68,44.57 172.04,29.46 173.89,25.13C174.23,24.29 174.69,23.57 174.9,23.57C175.11,23.57 175.99,25.13 176.88,27.06C180.41,34.72 190.38,54.32 194,60.71C203.21,77.12 212.8,92.98 225.8,113.13C229.92,119.44 233.2,124.87 233.12,125.2C232.95,126.08 233.37,126.88 255.12,165.96C265.51,184.68 276.74,208.45 283.43,225.95C286.04,232.68 291.38,248.67 293.57,256.03C294.24,258.39 295.59,263.69 296.51,267.81C303.87,300.62 303.75,327.5 296.09,354.43C287.76,383.79 272.78,409.08 251.5,429.73C227.52,452.99 194.96,468.77 162.19,473.06C156.72,473.78 144.98,474.57 141.32,474.45C140.06,474.45 136.73,474.28 133.92,474.07L133.94,474.06ZM200.03,447.31C210.93,440.03 212.44,438.52 212.44,434.98C212.44,431.19 209.79,428.8 206.17,429.3C204.66,429.51 203.35,430.18 200.45,432.29C198.35,433.8 195.23,435.99 193.51,437.17C186.82,441.71 185.52,443.19 185.52,446.21C185.52,448.02 186.57,449.83 188.3,451.05C189.23,451.64 190.07,451.81 191.62,451.68C193.47,451.55 194.48,451.05 200.03,447.3L200.03,447.31ZM166.8,438.22C180.85,431.03 187.79,426.65 199.19,417.65C205.42,412.73 219.38,398.97 223.13,394.05C225.44,391.02 225.65,390.52 225.82,388.24C225.99,385.8 225.99,385.72 224.31,384.08C222.75,382.48 222.5,382.4 220.19,382.4L217.71,382.4L213.5,386.9C195.24,406.63 183,416.05 160.07,427.92C151.61,432.3 150.6,433.22 150.6,436.54C150.6,440.2 152.96,442.56 156.49,442.56C158.05,442.52 159.86,441.76 166.8,438.23L166.8,438.22ZM135.67,425.85C140.09,424 151.15,418.32 158.47,414.11C183.21,399.98 198.77,386.22 211.18,367.58C217.62,357.9 222.5,346.21 224.73,335.27C226.03,328.71 226.12,315.16 224.9,309.61C223.09,301.36 218.55,291.06 215.39,287.95C213.79,286.39 213.5,286.27 211.44,286.27C208.92,286.31 206.94,287.45 205.93,289.43C204.79,291.66 205.13,293.3 208.03,298.98C212.41,307.73 214,314.97 213.58,324.35C213.16,333.52 210.89,341.85 206.13,351.48C197.97,368.14 184.34,382.86 165.75,395.23C155.74,401.88 149.85,405.24 137.23,411.51C130.96,414.62 126.76,416.94 126.38,417.53C124.61,420.22 124.87,423.42 126.97,425.44C129.24,427.63 131.18,427.71 135.68,425.86L135.67,425.85ZM230.78,422.57C232.38,421.35 238.06,415.17 242.77,409.49C257.03,392.33 266.92,373.14 271.8,353.16C274.07,343.74 274.11,340.46 271.93,338.18C269.15,335.28 264.32,335.87 262.38,339.32C262.21,339.61 261.62,342.18 261.08,345C256.62,367.21 246.44,386.9 229.24,406.42C220.83,415.97 220.45,416.73 222.05,420.43C223.61,423.92 227.69,424.93 230.8,422.58L230.78,422.57ZM115.85,406.96C132.13,400.44 134.19,399.09 134.19,394.89C134.19,392.45 133.31,390.77 131.41,389.51C129.31,388.12 127.12,388.46 121.23,391.07C118.29,392.37 113.07,394.56 109.66,395.91C106.21,397.26 102.93,398.64 102.38,399.02C98.72,401.42 98.89,407.01 102.72,409.33C105.16,410.8 107.1,410.47 115.85,406.97L115.85,406.96ZM154.22,387.19C163.81,381.17 171,375.41 178.37,367.84C186.11,359.89 190.61,353.71 194.9,345.17C199.44,336.08 201.38,328.26 200.96,320.77C200.41,311.77 197.68,305.33 191.83,299.53C185.69,293.35 179.08,290.82 170.38,291.24C163.65,291.58 158.56,293.6 152.38,298.35C148.05,301.72 145.31,305.21 141.32,312.65C134.76,324.85 127.48,331.75 113.18,339.45C105.9,343.36 104.22,345.72 105.82,349.8C106.62,351.99 108.34,353.38 110.57,353.67C112.51,353.88 116.63,351.95 124.45,347.11C138.37,338.44 144.52,332.09 151.71,318.92C155.96,311.22 158.99,307.81 163.57,305.54C166.68,303.98 166.89,303.94 171.39,303.94C175.6,303.94 176.31,304.07 178.5,305.08C183.55,307.44 187.38,312.53 188.51,318.37C190.45,328.51 184.43,342.56 172.23,356.44C166.09,363.42 158.6,369.69 148.63,376.25C146.32,377.81 144.04,379.57 143.62,380.16C141.1,384.07 144.04,389.54 148.71,389.54C150.14,389.54 151.23,389.08 154.22,387.18L154.22,387.19ZM99.07,386.14C101.38,385.42 106.31,383.66 110.01,382.19C140.59,370.16 161.96,353.37 172.48,333.14C175.21,327.8 176.48,323.76 176.06,321.57C175.51,318.54 172.32,316.4 169.29,316.98C166.47,317.48 164.24,320.26 161.93,326.11C160.08,330.86 155.58,337.34 150.4,342.81C138.75,355.09 118.09,366.87 94.83,374.57C89.57,376.29 88.02,377.51 87.55,380.16C87.09,382.64 87.68,384.54 89.36,386.05C91.34,387.86 93.48,387.9 99.08,386.13L99.07,386.14ZM236.21,372.13C239.58,369.9 245.72,355.56 248.37,343.61C251.69,328.76 251.9,318.08 249.21,304.57C244.37,280.47 228.01,258.97 206.18,247.99C185.65,237.73 161.8,237.77 140.18,248.2C125.71,255.18 117.8,262.5 104.97,280.8C102.91,283.74 100.13,287.24 98.83,288.58C94.41,293.08 88.57,296.4 80.99,298.72C78.68,299.44 76.24,300.36 75.52,300.78C71.78,303.05 71.73,309.03 75.44,311.34C79.94,314.2 96.26,307.68 105.64,299.27C109.17,296.16 111.53,293.3 116.75,285.85C119.02,282.61 122.09,278.49 123.56,276.72C133.28,265.03 145.86,257.45 161.21,254C167.35,252.61 179.05,252.61 185.4,254C193.69,255.81 201.13,258.92 207.91,263.42C212.58,266.53 219.86,273.47 223.85,278.61C234.54,292.41 239.75,309.87 238.49,327.74C237.73,338.55 235.25,347.85 230.16,358.95C227.26,365.26 227.05,365.93 227.13,368.16C227.17,369.55 229.02,371.78 230.75,372.54C232.26,373.26 234.79,373.04 236.22,372.12L236.21,372.13ZM88.3,363.04C92.42,361.9 94.4,360.43 95.07,357.95C96.16,353.91 93.39,350.42 89.1,350.42C86.74,350.42 79.34,352.61 78.2,353.62C75.72,355.85 75.47,359.93 77.65,362.29C78.32,362.96 79.25,363.72 79.71,363.93C80.97,364.48 84.3,364.14 88.29,363.05L88.3,363.04ZM85.44,337.84C91.16,336.37 95.33,334.77 101.38,331.74C110.51,327.15 115.98,323.28 122.67,316.6C128.56,310.75 129.99,308.61 129.99,305.54C129.99,303.56 129.82,303.1 128.48,301.63C126.59,299.57 124.82,299.15 122.21,300.16C120.78,300.71 119.56,301.76 116.95,304.79C107.82,315.48 96.63,321.95 79.59,326.41C77.02,327.08 74.5,327.92 74,328.3C72.36,329.44 71.52,331.16 71.52,333.31C71.52,335.79 72.4,337.43 74.42,338.61C76.31,339.79 78.67,339.62 85.44,337.85L85.44,337.84ZM272.93,322.23C275.08,320.93 275.96,319.07 275.96,315.92C275.96,309.15 272.76,293.62 269.52,284.75C267.63,279.53 267.04,278.4 265.44,277.05C263.13,275.11 259.17,275.79 256.9,278.44C255.26,280.42 255.39,282.56 257.4,287.61C257.71,288.387 258.006,289.156 258.288,289.919C261.037,297.338 262.548,304.25 263.5,313.48C264.17,319.83 264.64,320.93 267.08,322.23C269.06,323.28 271.2,323.28 272.93,322.23ZM142.52,290.09C143.15,289.75 144.96,288.45 146.56,287.19C158.47,277.68 174.58,275.58 188.46,281.68C191.24,282.9 192.33,283.15 193.72,282.98C196.03,282.73 197.46,281.68 198.6,279.4C201.08,274.39 196.71,270.52 184.8,267.2C180.93,266.15 180.13,266.06 172.26,266.06C164.52,266.1 163.55,266.19 159.85,267.2C151.73,269.43 143.44,273.76 138.14,278.64C135.11,281.37 134.19,282.85 134.19,284.87C134.19,289.08 138.86,291.98 142.52,290.09ZM92.96,277.13C93.89,276.5 95.61,274.1 97.97,270.15C101.55,264.22 104.74,259.55 109.16,253.91C110.42,252.27 111.56,250.42 111.73,249.75C112.4,246.72 110.34,243.44 107.44,242.89C104.92,242.43 102.81,243.35 100.2,246.13C94.77,251.85 84.64,266.83 83.67,270.57C83.17,272.38 83.21,272.67 84.17,274.48C85.94,277.93 89.98,279.15 92.96,277.13ZM252.82,266.07C255.47,264.72 256.69,261.65 255.81,258.71C255.56,257.78 254.17,255.51 252.74,253.58C249.37,248.99 238.44,238.06 236.08,236.84C231.92,234.78 227.16,237.68 227.16,242.31C227.16,244.33 227.71,245.04 233.64,250.93C236.71,253.96 240.62,258.21 242.39,260.4C245.67,264.52 247.1,266.04 248.2,266.42C249.42,266.88 251.61,266.71 252.83,266.08L252.82,266.07ZM132.97,237.63C146.05,231.24 155.98,228.42 168.64,227.58C181.05,226.78 192.74,228.76 205.2,233.72C212.06,236.45 214.08,236.24 216.56,232.63C218.28,230.02 217.44,226.45 214.62,224.47C211.38,222.28 202.93,219.13 195.18,217.32C182.9,214.38 168.13,214.16 155.43,216.69C147.35,218.29 137.8,221.53 129.39,225.48C124.68,227.67 122.15,229.39 121.36,230.95C119.93,233.68 121.07,237.76 123.59,239.15C125.82,240.33 128.22,239.95 132.97,237.64L132.97,237.63Z" fill="rgb(20,177,248)" fill-rule="nonzero"/>
    </g>
</svg>
